<mxfile host="app.diagrams.net" modified="2022-07-27T14:05:01.404Z" agent="5.0 (X11; Linux x86_64) AppleWebKit/537.36 (KHTML, like Gecko) Chrome/103.0.0.0 Safari/537.36" etag="uaULM2tDG0iqYA4OF_z2" version="20.2.1" type="github">
  <diagram id="x1HyNisQhx496QW2E3_0" name="Page-1">
    <mxGraphModel dx="1348" dy="773" grid="1" gridSize="10" guides="1" tooltips="1" connect="1" arrows="1" fold="1" page="1" pageScale="1" pageWidth="1169" pageHeight="827" math="0" shadow="0">
      <root>
        <mxCell id="0" />
        <mxCell id="1" parent="0" />
        <mxCell id="atqAkuEqDKa8z79S1foh-8" value="3) Alice receives access token (NFT)" style="edgeStyle=none;rounded=0;orthogonalLoop=1;jettySize=auto;html=1;exitX=1;exitY=0.5;exitDx=0;exitDy=0;entryX=0.5;entryY=0.5;entryDx=0;entryDy=0;entryPerimeter=0;" edge="1" parent="1" source="atqAkuEqDKa8z79S1foh-1" target="atqAkuEqDKa8z79S1foh-4">
          <mxGeometry relative="1" as="geometry" />
        </mxCell>
        <mxCell id="atqAkuEqDKa8z79S1foh-1" value="Snip721" style="rounded=1;whiteSpace=wrap;html=1;" vertex="1" parent="1">
          <mxGeometry x="440" y="330" width="120" height="60" as="geometry" />
        </mxCell>
        <mxCell id="atqAkuEqDKa8z79S1foh-7" value="2) Mint an access token for Alice" style="edgeStyle=none;rounded=0;orthogonalLoop=1;jettySize=auto;html=1;exitX=0.5;exitY=1;exitDx=0;exitDy=0;entryX=0.5;entryY=0;entryDx=0;entryDy=0;" edge="1" parent="1" source="atqAkuEqDKa8z79S1foh-2" target="atqAkuEqDKa8z79S1foh-1">
          <mxGeometry relative="1" as="geometry" />
        </mxCell>
        <mxCell id="atqAkuEqDKa8z79S1foh-2" value="Access Manager" style="rounded=1;whiteSpace=wrap;html=1;" vertex="1" parent="1">
          <mxGeometry x="440" y="220" width="120" height="60" as="geometry" />
        </mxCell>
        <mxCell id="atqAkuEqDKa8z79S1foh-6" value="1) I want to purchase access to the service" style="edgeStyle=none;rounded=0;orthogonalLoop=1;jettySize=auto;html=1;exitX=0.5;exitY=0.5;exitDx=0;exitDy=0;exitPerimeter=0;entryX=1;entryY=0.5;entryDx=0;entryDy=0;" edge="1" parent="1" source="atqAkuEqDKa8z79S1foh-4" target="atqAkuEqDKa8z79S1foh-2">
          <mxGeometry relative="1" as="geometry" />
        </mxCell>
        <mxCell id="atqAkuEqDKa8z79S1foh-4" value="Alice" style="shape=umlActor;verticalLabelPosition=bottom;verticalAlign=top;html=1;outlineConnect=0;" vertex="1" parent="1">
          <mxGeometry x="810" y="273" width="30" height="60" as="geometry" />
        </mxCell>
      </root>
    </mxGraphModel>
  </diagram>
</mxfile>
